<?xml version="1.0" encoding="UTF-8"?>
<svg version="1.1" xmlns="http://www.w3.org/2000/svg" width="55" height="72">
<path d="M0 0 C2.01785902 1.53584118 2.90604476 2.37062859 3.28515625 4.91015625 C1.93286712 17.9822845 -8.33902534 27.53769569 -16.45410156 37.15478516 C-18.34074036 39.40671441 -20.1792242 41.69458985 -22 44 C-25.875 42.25 -25.875 42.25 -27 40 C-27.81984375 40.19078125 -28.6396875 40.3815625 -29.484375 40.578125 C-30.56203125 40.79984375 -31.6396875 41.0215625 -32.75 41.25 C-34.35101563 41.59804687 -34.35101563 41.59804687 -35.984375 41.953125 C-39 42 -39 42 -41.4375 40.34375 C-43 38 -43 38 -42.953125 35.640625 C-42.72109375 34.85171875 -42.4890625 34.0628125 -42.25 33.25 C-42.02828125 32.45078125 -41.8065625 31.6515625 -41.578125 30.828125 C-41.38734375 30.22484375 -41.1965625 29.6215625 -41 29 C-40.34 29.33 -39.68 29.66 -39 30 C-39.185625 30.969375 -39.37125 31.93875 -39.5625 32.9375 C-39.706875 33.948125 -39.85125 34.95875 -40 36 C-39.67 36.33 -39.34 36.66 -39 37 C-36.66055264 36.71269945 -34.3260857 36.38063221 -32 36 C-32 33.21303951 -33.23770097 32.17574275 -34.9375 30 C-39.34141364 24.33633801 -39.70226263 20.16110065 -39 13 C-37.73711066 9.04535223 -35.46657315 6.45490882 -32.5 3.5625 C-27.0588687 1.13342353 -20.61665096 0.97790299 -14.84375 2.609375 C-10.01129183 3.63320088 -5.49561499 -0.74940204 0 0 Z M-13 4 C-11.02 6.97 -9.04 9.94 -7 13 C-4.66666462 9.39211347 -4.66666462 9.39211347 -5.5 6.8125 C-6.96020829 4.67886791 -6.96020829 4.67886791 -10.125 4.25 C-11.07375 4.1675 -12.0225 4.085 -13 4 Z M-31.875 12.625 C-33.69043199 16.45757865 -33.18548795 19.9943761 -32 24 C-29.46222049 27.07609638 -26.92614747 28.26489139 -23.125 29.1875 C-19.47132102 29.47337946 -17.64659386 28.47649007 -14.875 26.125 C-12.89179818 23.87074554 -12.03785764 22.68487906 -11.87109375 19.66796875 C-12.53964928 16.10036709 -13.65750365 13.507402 -15.6875 10.5 C-22.08312949 6.35148358 -26.56519285 8.02316714 -31.875 12.625 Z " fill="#061525" transform="translate(47,17)"/>
<path d="M0 0 C3.88103706 1.90647435 7.03650679 4.07301359 9 8 C8.89599954 12.88802154 7.2450079 15.44095908 4 19 C3.731875 17.741875 3.46375 16.48375 3.1875 15.1875 C2.58626469 12.85668365 2.07427851 11.12119126 0.8125 9.0625 C-2.12213003 7.34219964 -4.62724676 7.11630184 -8 7 C-11.57387602 8.58838934 -12.81089572 9.71634358 -15 13 C-15.22215403 17.08763406 -14.99092338 20.86751613 -12.25 24 C-9.8304903 25.07533765 -7.61896409 25.63625499 -5 26 C-5 26.99 -5 27.98 -5 29 C-7.97 30.32 -10.94 31.64 -14 33 C-15.14795006 31.5433323 -16.29329419 30.08461063 -17.4375 28.625 C-18.07558594 27.81289063 -18.71367187 27.00078125 -19.37109375 26.1640625 C-22.91403296 21.45713607 -22.56103602 16.72098704 -22 11 C-20.73711066 7.04535223 -18.46657315 4.45490882 -15.5 1.5625 C-10.33247381 -0.74443133 -5.57007254 -0.76407031 0 0 Z " fill="#24B48D" transform="translate(30,19)"/>
<path d="M0 0 C1.98 0 3.96 0 6 0 C6.33 1.65 6.66 3.3 7 5 C8.32 5 9.64 5 11 5 C11 7.31 11 9.62 11 12 C9.68 12 8.36 12 7 12 C6.67 13.65 6.34 15.3 6 17 C4.35 17 2.7 17 1 17 C0.67 15.35 0.34 13.7 0 12 C-1.65 11.67 -3.3 11.34 -5 11 C-5 9.02 -5 7.04 -5 5 C-3.35 5 -1.7 5 0 5 C0 3.35 0 1.7 0 0 Z " fill="#18BD90" transform="translate(21,27)"/>
<path d="M0 0 C1.98 0 3.96 0 6 0 C6.33 1.65 6.66 3.3 7 5 C8.32 5 9.64 5 11 5 C11 7.31 11 9.62 11 12 C9.68 12 8.36 12 7 12 C6.67 13.65 6.34 15.3 6 17 C4.68 16.67 3.36 16.34 2 16 C2.99 16 3.98 16 5 16 C5.33 14.35 5.66 12.7 6 11 C7.32 11 8.64 11 10 11 C10 9.68 10 8.36 10 7 C8.68 7 7.36 7 6 7 C5.34 5.68 4.68 4.36 4 3 C2.02 3.99 2.02 3.99 0 5 C0 3.35 0 1.7 0 0 Z " fill="#31AA8A" transform="translate(21,27)"/>
<path d="M0 0 C1.32 0.33 2.64 0.66 4 1 C3.65103136 9.16586606 3.65103136 9.16586606 1 12.5625 C-1 14 -1 14 -2 14 C-2.1875 11.1875 -2.1875 11.1875 -2 8 C-1 7 0 6 1 5 C0.76956136 2.34533951 0.76956136 2.34533951 0 0 Z " fill="#04111F" transform="translate(46,19)"/>
<path d="M0 0 C1.06347656 0.00386719 2.12695312 0.00773437 3.22265625 0.01171875 C5.9375 0.3125 5.9375 0.3125 7.9375 2.3125 C4.6375 2.6425 1.3375 2.9725 -2.0625 3.3125 C-2.0625 3.9725 -2.0625 4.6325 -2.0625 5.3125 C-0.7425 5.6425 0.5775 5.9725 1.9375 6.3125 C0.2875 6.3125 -1.3625 6.3125 -3.0625 6.3125 C-3.0625 4.9925 -3.0625 3.6725 -3.0625 2.3125 C-5.0425 2.6425 -7.0225 2.9725 -9.0625 3.3125 C-6.43897626 -0.15201393 -4.19734485 -0.06630071 0 0 Z " fill="#36AD8D" transform="translate(24.0625,18.6875)"/>
<path d="M0 0 C1.65 0 3.3 0 5 0 C5.33 1.65 5.66 3.3 6 5 C4.02 5.99 4.02 5.99 2 7 C1.01 6.34 0.02 5.68 -1 5 C-0.67 3.35 -0.34 1.7 0 0 Z " fill="#0D1525" transform="translate(41,9)"/>
<path d="M0 0 C0.66 0.33 1.32 0.66 2 1 C1.814375 1.969375 1.62875 2.93875 1.4375 3.9375 C1.2209375 5.4534375 1.2209375 5.4534375 1 7 C2.18424326 8.41577477 2.18424326 8.41577477 5.5625 8.0625 C7.2640625 8.0315625 7.2640625 8.0315625 9 8 C9 8.66 9 9.32 9 10 C7.02 10 5.04 10 3 10 C3.33 10.99 3.66 11.98 4 13 C1.5625 12.3125 1.5625 12.3125 -1 11 C-2.70510273 6.90775344 -1.57917814 3.99439176 0 0 Z " fill="#0E1B27" transform="translate(6,46)"/>
<path d="M0 0 C2.97 0.495 2.97 0.495 6 1 C6 1.99 6 2.98 6 4 C3.03 5.32 0.06 6.64 -3 8 C-3.66 7.01 -4.32 6.02 -5 5 C-3.35 5 -1.7 5 0 5 C0 3.35 0 1.7 0 0 Z " fill="#2EA287" transform="translate(19,44)"/>
<path d="M0 0 C0 0.99 0 1.98 0 3 C-0.99 3 -1.98 3 -3 3 C-3 4.65 -3 6.3 -3 8 C-3.99 8 -4.98 8 -6 8 C-6.33 8.66 -6.66 9.32 -7 10 C-7 8.02 -7 6.04 -7 4 C-6.34 4 -5.68 4 -5 4 C-5 3.01 -5 2.02 -5 1 C-3 0 -3 0 0 0 Z " fill="#17BE8E" transform="translate(16,26)"/>
<path d="M0 0 C0 1.65 0 3.3 0 5 C-1.32 5 -2.64 5 -4 5 C-4 4.34 -4 3.68 -4 3 C-5.32 3 -6.64 3 -8 3 C-8 2.34 -8 1.68 -8 1 C-5.29120665 -0.35439668 -2.99066732 -0.06501451 0 0 Z " fill="#1BBA8E" transform="translate(30,21)"/>
<path d="M0 0 C1.65 0 3.3 0 5 0 C3.68 0.33 2.36 0.66 1 1 C1 2.32 1 3.64 1 5 C4.465 4.505 4.465 4.505 8 4 C7.34 6.31 6.68 8.62 6 11 C5.67 9.68 5.34 8.36 5 7 C3.35 6.67 1.7 6.34 0 6 C0 4.02 0 2.04 0 0 Z " fill="#3BB293" transform="translate(16,32)"/>
<path d="M0 0 C2.46800047 1.15173355 4.04783565 2.04783565 6 4 C6 4.99 6 5.98 6 7 C6.66 7 7.32 7 8 7 C7.34 8.65 6.68 10.3 6 12 C5.67 12 5.34 12 5 12 C4.731875 10.7625 4.46375 9.525 4.1875 8.25 C3.36118005 4.89716221 2.37328726 2.58904064 0 0 Z " fill="#36A38A" transform="translate(29,26)"/>
<path d="M0 0 C0 1.32 0 2.64 0 4 C0.66 4.33 1.32 4.66 2 5 C1.34 5.66 0.68 6.32 0 7 C-0.4125 6.54625 -0.825 6.0925 -1.25 5.625 C-3.06408095 3.94049626 -4.75285627 3.00734029 -7 2 C-4.35261084 0.5393715 -3.10551666 0 0 0 Z " fill="#142330" transform="translate(41,18)"/>
<path d="M0 0 C0.66 0.33 1.32 0.66 2 1 C1.45773019 4.79588866 -0.20127563 6.47211993 -3 9 C-3 5.30581799 -1.71820705 3.22163822 0 0 Z " fill="#062C35" transform="translate(37,33)"/>
<path d="M0 0 C0 3 0 3 -2.5 5.6875 C-3.325 6.450625 -4.15 7.21375 -5 8 C-4.64950425 4.75791433 -4.43778819 3.38472296 -1.9375 1.1875 C-1.298125 0.795625 -0.65875 0.40375 0 0 Z " fill="#040A1B" transform="translate(35,46)"/>
</svg>
